<svg version="1.1" xmlns="http://www.w3.org/2000/svg" xmlns:xlink="http://www.w3.org/1999/xlink" x="0px" y="0px" viewBox="0 0 100 100" enable-background="new 0 0 100 100" xml:space="preserve">
	<path xmlns="http://www.w3.org/2000/svg" d="M81 17.6h-.7v-6.9a6.7 6.7 0 0 0-13.4 0v6.9H56.8v-6.9a6.7 6.7 0 0 0-13.4 0v6.9H33.3v-6.9a6.7 6.7 0 0 0-13.4 0v6.9h-.8c-6.9 0-12.5 5.6-12.5 12.5v51.4c0 6.9 5.6 12.5 12.5 12.5H81c6.9 0 12.5-5.6 12.5-12.5V30.1c0-6.9-5.6-12.5-12.5-12.5zm-10.3-6.9a2.9 2.9 0 0 1 5.8 0v15.8a2.9 2.9 0 0 1-5.8 0V10.7zm-23.5 0a2.9 2.9 0 0 1 5.8 0v15.8a2.9 2.9 0 0 1-5.8 0V10.7zm-23.5 0a2.9 2.9 0 0 1 5.8 0v15.8a2.9 2.9 0 0 1-5.8 0V10.7zm-4.6 10.6h.8v5.1a6.7 6.7 0 0 0 13.4 0v-5.1h10.1v5.1a6.7 6.7 0 0 0 13.4 0v-5.1h10.1v5.1a6.7 6.7 0 0 0 13.4 0v-5.1h.7c4.8 0 8.8 3.9 8.8 8.8v11H10.4v-11c0-4.8 3.9-8.8 8.7-8.8zM81 90.2H19.1c-4.8 0-8.8-3.9-8.8-8.8V44.8h79.4v36.6c.1 4.9-3.9 8.8-8.7 8.8z"/>
	<path xmlns="http://www.w3.org/2000/svg" d="M20 81.8h60.8V51.4H20v30.4zm3.7-13.1h8V78h-8v-9.3zm34.3 0h7.5V78H58v-9.3zM54.3 78h-7.5v-9.3h7.5V78zM58 65v-9.9h7.5V65H58zm-3.7 0h-7.5v-9.9h7.5V65zM43 65h-7.5v-9.9H43V65zm0 3.7V78h-7.5v-9.3H43zM69.3 78v-9.3H77V78h-7.7zM77 65h-7.7v-9.9H77V65zm-45.3-9.9V65h-8v-9.9h8z"/>	
</svg>