<svg version="1.1" xmlns="http://www.w3.org/2000/svg" xmlns:xlink="http://www.w3.org/1999/xlink" x="0px" y="0px" viewBox="0 0 100 100" enable-background="new 0 0 100 100" xml:space="preserve">
	<path xmlns="http://www.w3.org/2000/svg" d="M25.5 94.7H5.9a.9.9 0 0 1-.9-.9V46.9c0-.5.4-.9.9-.9h20.6c.5 0 .9.4.9.9v46.8c0 .6-.4 1-.9 1zm4.3-44s5.9-2.1 8.1-5.7c1.9-3.1 10.4-17.2 12.6-20.8.3-.6.5-1.2.5-1.9v-8.2c0-.2-1.4-8.6 5.3-9.4 7.5-.9 14.1 13.8 11.8 23.4L67 39.8h20.9c3.3 0 5.8 3 5.3 6.3l-7.3 41.4c-.5 2.5-2.7 4.4-5.3 4.4H42.7c-.6 0-1.1-.1-1.6-.4l-5.3-2.8c-.6-.3-1.2-.4-1.8-.4h-3.1V50.7z"/>
</svg>