<svg version="1.1" xmlns="http://www.w3.org/2000/svg" xmlns:xlink="http://www.w3.org/1999/xlink" x="0px" y="0px" viewBox="0 0 100 100" enable-background="new 0 0 100 100" xml:space="preserve">
	<path xmlns="http://www.w3.org/2000/svg" d="M50 97.5C23.8 97.5 2.5 76.2 2.5 50S23.8 2.5 50 2.5 97.5 23.8 97.5 50 76.2 97.5 50 97.5zm0-89.2C27 8.3 8.3 27 8.3 50S27 91.7 50 91.7 91.7 73 91.7 50 73 8.3 50 8.3z" />
	<path xmlns="http://www.w3.org/2000/svg" d="M69.5 51.1L38.2 70.3c-1 .6-2.4-.1-2.4-1.3V31.1c0-1.2 1.3-2 2.4-1.4l31.3 18.7c1 .7 1 2.1 0 2.7z"/>
</svg>